<svg width="16" height="16" viewBox="0 0 16 16" fill="none" xmlns="http://www.w3.org/2000/svg">
<path d="M6.00001 14.6667C5.8232 14.6667 5.65363 14.5964 5.52861 14.4714C5.40358 14.3464 5.33334 14.1768 5.33334 14V12H2.66668C2.31305 12 1.97392 11.8595 1.72387 11.6095C1.47382 11.3594 1.33334 11.0203 1.33334 10.6667V2.66668C1.33334 2.31305 1.47382 1.97392 1.72387 1.72387C1.97392 1.47382 2.31305 1.33334 2.66668 1.33334H13.3333C13.687 1.33334 14.0261 1.47382 14.2762 1.72387C14.5262 1.97392 14.6667 2.31305 14.6667 2.66668V10.6667C14.6667 11.0203 14.5262 11.3594 14.2762 11.6095C14.0261 11.8595 13.687 12 13.3333 12H9.26668L6.80001 14.4733C6.66668 14.6 6.50001 14.6667 6.33334 14.6667H6.00001ZM6.66668 10.6667V12.72L8.72001 10.6667H13.3333V2.66668H2.66668V10.6667H6.66668ZM11.3333 7.33334H10V6.00001H11.3333V7.33334ZM8.66668 7.33334H7.33334V6.00001H8.66668V7.33334ZM6.00001 7.33334H4.66668V6.00001H6.00001V7.33334Z" fill="black"/>
</svg>
