<svg width="16" height="20" viewBox="0 0 16 20" fill="none" xmlns="http://www.w3.org/2000/svg">
<path fill-rule="evenodd" clip-rule="evenodd" d="M9.07301 13.2995L10.009 14.6655L10.024 14.6855C10.61 15.4965 10.398 16.6405 9.58501 17.1775C9.31882 17.355 9.006 17.4498 8.68601 17.4498C8.36602 17.4498 8.0532 17.355 7.78701 17.1775M9.07301 13.2995L9.04601 13.3525L9.02801 13.3875C8.72929 13.9778 8.2871 14.4836 7.74201 14.8585L7.59901 14.9565C7.30301 15.1605 7.17101 15.3115 7.11901 15.4315C6.97201 15.7655 6.97101 16.0655 7.06401 16.3315C7.16001 16.6055 7.38201 16.9095 7.78701 17.1775M7.34501 12.2745C7.37901 12.1325 7.40801 11.9485 7.44301 11.7315C7.46301 11.5981 7.48634 11.4541 7.51301 11.2995C7.54301 11.1335 7.58301 10.9175 7.64001 10.7455C7.65501 10.6975 7.67901 10.6335 7.71201 10.5645C7.73901 10.5075 7.80401 10.3805 7.92501 10.2575C8.03161 10.1484 8.16116 10.0645 8.30424 10.0118C8.44733 9.95905 8.60036 9.93884 8.75222 9.95263C8.90409 9.96642 9.05098 10.0139 9.18223 10.0915C9.31348 10.1691 9.42579 10.275 9.51101 10.4015L11.652 13.5245C12.887 15.2445 12.458 17.6765 10.687 18.8465C10.0938 19.2399 9.39782 19.4498 8.68601 19.4498C7.9742 19.4498 7.27819 19.2399 6.68501 18.8465C5.97901 18.3805 5.44101 17.7465 5.17601 16.9915C4.90801 16.2275 4.94601 15.4035 5.28601 14.6285C5.56701 13.9885 6.07801 13.5755 6.46601 13.3085L6.60901 13.2105C6.87801 13.0255 7.09601 12.7755 7.24301 12.4845L7.29601 12.3815L7.32901 12.3115L7.34501 12.2745Z" fill="#E97A19"/>
<path fill-rule="evenodd" clip-rule="evenodd" d="M10.243 0.462459C10.458 0.742459 10.5 1.04946 10.5 1.25646C10.5 3.55246 11.108 5.63346 12.596 7.13646C12.8663 7.40924 13.1421 7.67663 13.423 7.93846C14.197 8.66546 15.197 9.60546 15.646 10.8785C15.876 11.5325 16 12.2285 16 12.9485C16 16.9535 12.268 19.9485 8 19.9485C4.852 19.9485 2.054 18.3485 0.753 15.9205C0.260937 15.0066 0.00227306 13.9854 0 12.9475V12.0845C0 10.5695 0.229 9.06246 0.679 7.61446C0.776 7.29646 0.916 6.91246 1.164 6.63546C1.305 6.47846 1.554 6.27346 1.921 6.22846C2.298 6.18246 2.595 6.32846 2.773 6.46046C3.072 6.68146 3.253 7.01946 3.349 7.20646C3.467 7.43946 3.583 7.71646 3.691 7.98446C3.808 8.27346 3.975 8.54946 4.183 8.80746C4.307 8.96046 4.409 9.08946 4.502 9.20646L4.692 9.44546C4.80426 9.28281 4.8731 9.09418 4.892 8.89746L5.088 6.71446C5.19 5.57146 5.4 4.30446 5.872 3.16246C6.348 2.01146 7.113 0.930459 8.35 0.270459C8.57 0.153459 8.971 -0.037541 9.411 0.00645903C9.682 0.033459 10.007 0.156459 10.243 0.462459ZM8.563 2.58646C8.217 2.94246 7.941 3.39246 7.721 3.92646C7.36 4.80046 7.174 5.83946 7.079 6.89246L6.884 9.07546C6.844 9.52146 6.709 9.95346 6.489 10.3435C6.209 10.8415 5.746 11.3035 5.131 11.4745C4.439 11.6665 3.736 11.4325 3.254 10.8465C3.156 10.7265 3.037 10.5775 2.915 10.4245L2.628 10.0645C2.49296 9.89604 2.36711 9.72045 2.251 9.53846C2.08383 10.3768 1.99975 11.2296 2 12.0845V12.9485C2 13.6685 2.182 14.3535 2.516 14.9775C3.428 16.6785 5.498 17.9485 8 17.9485C11.464 17.9485 14 15.5705 14 12.9485C14 12.4595 13.916 11.9885 13.76 11.5435C13.48 10.7535 12.845 10.1485 12 9.34746L11.805 9.16046C11.6003 8.96646 11.3903 8.76079 11.175 8.54346C9.532 6.88346 8.773 4.76346 8.563 2.58646Z" fill="#E92019"/>
</svg>
